<?xml version="1.0" encoding="UTF-8"?>
<!DOCTYPE svg PUBLIC "-//W3C//DTD SVG 1.1//EN" "http://www.w3.org/Graphics/SVG/1.1/DTD/svg11.dtd">
<!-- Creator: CorelDRAW 2019 (64-Bit) -->
<svg xmlns="http://www.w3.org/2000/svg" xml:space="preserve" width="394px" height="429px" version="1.1" style="shape-rendering:geometricPrecision; text-rendering:geometricPrecision; image-rendering:optimizeQuality; fill-rule:evenodd; clip-rule:evenodd"
viewBox="0 0 394 428.52"
 xmlns:xlink="http://www.w3.org/1999/xlink">
 <defs>
  <style type="text/css">
   <![CDATA[
    .fil2 {fill:#FEFEFE}
    .fil0 {fill:#891E2E}
    .fil1 {fill:#373435;fill-rule:nonzero}
   ]]>
  </style>
 </defs>
 <g id="Layer_x0020_1">
  <metadata id="CorelCorpID_0Corel-Layer"/>
  <g id="_999720976">
   <path class="fil0" d="M62.89 53.82l35.74 -17.57c55.1,9.51 85.07,0.02 98.37,-22.07 13.3,22.09 43.27,31.58 98.37,22.07l35.74 17.57 14.9 210.58c-57.69,37.84 -106.62,89.67 -149.01,151.98 -42.39,-62.31 -91.32,-114.14 -149.01,-151.98l14.9 -210.58z"/>
   <path class="fil1" d="M61.36 50.68l35.74 -17.57 2.12 -0.31c27.07,4.67 47.86,4.7 63.44,0.87 15.06,-3.7 25.17,-11.05 31.34,-21.3l3 -4.98 3 4.98c6.17,10.25 16.28,17.6 31.34,21.3 15.58,3.83 36.37,3.8 63.44,-0.87l2.12 0.31 37.56 18.47c5.05,71.54 10.11,143.08 15.18,214.62l-1.72 1.13c-28.63,18.78 -55.09,41.04 -79.65,66.32 -24.61,25.34 -47.31,53.72 -68.38,84.69l-2.89 4.24 -2.89 -4.24c-21.07,-30.97 -43.77,-59.35 -68.38,-84.69 -24.56,-25.28 -51.02,-47.54 -79.65,-66.32l-1.72 -1.13 15.18 -214.62 1.82 -0.9zm37.78 -10.8l-32.9 16.18 -14.61 206.54c28.39,18.82 54.67,41.02 79.11,66.18 23.75,24.46 45.76,51.73 66.26,81.43 20.5,-29.7 42.51,-56.97 66.26,-81.43 24.44,-25.16 50.72,-47.36 79.11,-66.18l-14.61 -206.54 -32.91 -16.18c-27.5,4.65 -48.89,4.59 -65.18,0.58 -14.81,-3.64 -25.46,-10.52 -32.67,-20.04 -7.21,9.53 -17.86,16.4 -32.67,20.04 -16.29,4.01 -37.68,4.07 -65.19,-0.58z"/>
   <path class="fil2" d="M233.7 231.43c-18.81,-5.67 -31.14,-2.87 -36.7,8.79 -5.56,-11.66 -17.89,-14.46 -36.7,-8.79l3.06 44.92c11.48,-11.19 22.67,-10.22 33.64,0 10.97,-10.22 22.16,-11.19 33.64,0l3.06 -44.92z"/>
   <polygon class="fil2" points="194.52,273.05 199.48,273.05 199.48,418.97 197,422.61 194.52,418.96 "/>
   <rect class="fil2" x="193.94" y="125.52" width="6.12" height="65.57"/>
   <rect class="fil2" transform="matrix(0.293806 -0.0850137 0.049075 0.169602 169.885 157.519)" width="20" height="214.38"/>
   <rect class="fil2" transform="matrix(0.296609 0.074648 -0.0430913 0.171221 215.262 155.125)" width="20" height="214.38"/>
   <rect class="fil2" transform="matrix(0.217528 0.215014 -0.124119 0.12557 255.971 176.211)" width="20" height="214.38"/>
   <rect class="fil2" transform="matrix(0.0816281 0.294765 -0.170156 0.0471206 280.01 214.061)" width="20" height="214.38"/>
   <rect class="fil2" transform="matrix(0.211149 -0.221281 0.127737 0.121888 131.959 182.388)" width="20" height="214.38"/>
   <rect class="fil2" transform="matrix(0.0685782 -0.298071 0.172064 0.0395874 111.547 223.701)" width="20" height="214.38"/>
   <rect class="fil2" transform="matrix(0.260894 -0.159636 0.121006 0.19776 142.807 157.516)" width="20" height="214.38"/>
   <rect class="fil2" transform="matrix(0.265344 0.152124 -0.115312 0.201134 243.502 152.96)" width="20" height="214.38"/>
   <rect class="fil2" transform="matrix(0.15553 0.263362 -0.199631 0.117894 280.545 187.332)" width="20" height="214.38"/>
   <rect class="fil2" transform="matrix(-0.00119196 0.305856 -0.231842 -0.000903519 295.844 237.549)" width="20" height="214.38"/>
   <rect class="fil2" transform="matrix(0.149851 -0.266634 0.202112 0.113589 109.343 194.467)" width="20" height="214.38"/>
   <rect class="fil2" transform="matrix(-0.00354722 -0.305838 0.231828 -0.00268883 98.2091 244.427)" width="20" height="214.38"/>
  </g>
 </g>
</svg>
